<svg width="531" height="92" viewBox="0 0 531 92" fill="none" xmlns="http://www.w3.org/2000/svg">
<path d="M0.584 1.39999H42.312V91H0.584V1.39999ZM49.584 1.39999H87.216L124.592 46.2V1.39999H132.272V91H102.192L57.392 31.352V91H49.584V1.39999ZM139.459 1.39999H232.387V8.952H184.387V42.104H207.939V49.784H184.387V91H139.459V1.39999ZM282.717 91.64C267.272 91.64 256.221 89.3787 249.565 84.856C242.994 80.3333 239.709 73.4213 239.709 64.12V1.39999H288.605V64.12C288.605 70.1787 289.928 74.616 292.573 77.432C295.304 80.1627 298.888 81.528 303.325 81.528C313.224 81.528 318.173 75.7253 318.173 64.12V1.39999H325.725V64.12C325.725 71.3733 324.189 77.0053 321.117 81.016C318.045 84.9413 313.437 87.7147 307.293 89.336C301.149 90.872 292.957 91.64 282.717 91.64ZM400.418 33.528C410.573 36.2587 418.167 39.8853 423.202 44.408C428.237 48.8453 430.754 54.648 430.754 61.816C430.754 67.5333 428.962 72.6533 425.378 77.176C421.794 81.6987 416.503 85.24 409.506 87.8C402.594 90.36 394.189 91.64 384.29 91.64C372.599 91.64 362.274 90.1467 353.314 87.16C344.439 84.088 337.485 80.376 332.45 76.024L336.674 70.264C341.111 73.7627 346.701 76.7493 353.442 79.224C360.183 81.6987 367.437 82.936 375.202 82.936C380.237 82.936 384.034 82.2107 386.594 80.76C389.239 79.3093 390.562 77.2613 390.562 74.616C390.562 70.008 385.997 66.424 376.866 63.864L360.226 59C351.181 56.2693 344.183 52.472 339.234 47.608C334.37 42.744 331.938 36.984 331.938 30.328C331.938 24.7813 333.687 19.7467 337.186 15.224C340.685 10.7013 345.762 7.16 352.418 4.6C359.159 1.95466 367.223 0.631996 376.61 0.631996C385.57 0.631996 393.805 1.656 401.314 3.70399C408.909 5.75199 415.095 8.22666 419.874 11.128L415.65 17.016C411.639 14.712 406.818 12.7493 401.186 11.128C395.639 9.50667 389.794 8.696 383.65 8.696C378.274 8.696 374.135 9.54933 371.234 11.256C368.418 12.8773 367.01 15.1387 367.01 18.04C367.01 20.2587 368.077 22.2213 370.21 23.928C372.343 25.5493 376.397 27.1707 382.37 28.792L400.418 33.528ZM437.209 1.39999H530.265V8.952H482.265V42.104H505.817V49.784H482.265V83.32H530.265V91H437.209V1.39999Z" fill="black"/>
</svg>
