<svg width="174" height="174" viewBox="0 0 174 174" fill="none" xmlns="http://www.w3.org/2000/svg">
<path d="M113.5 86.5C113.5 100.851 101.644 112.5 87 112.5C72.3556 112.5 60.5 100.851 60.5 86.5C60.5 72.1494 72.3556 60.5 87 60.5C101.644 60.5 113.5 72.1494 113.5 86.5Z" fill="#16181C" stroke="#16181C"/>
<circle cx="87" cy="87" r="83" stroke="#16181C" stroke-width="8"/>
<rect x="67" y="120" width="41" height="12" rx="6" fill="#717680"/>
<rect width="34" height="12" rx="6" transform="matrix(0.947233 -0.320546 -0.320546 -0.947233 125.44 84.2654)" fill="#16181C"/>
<path d="M117.538 105.371C116.061 108.337 117.267 111.939 120.233 113.416L139.926 123.225C142.892 124.703 146.494 123.496 147.971 120.53V120.53C149.449 117.564 148.242 113.962 145.276 112.484L125.584 102.675C122.618 101.198 119.015 102.405 117.538 105.371V105.371Z" fill="#16181C"/>
<rect width="34" height="12" rx="6" transform="matrix(-0.392599 0.91971 0.91971 0.392599 113.479 21.0371)" fill="#16181C"/>
<rect width="34" height="12" rx="6" transform="matrix(-0.392599 0.91971 0.91971 0.392599 113.479 21.0371)" fill="#16181C"/>
<rect x="47.2061" y="84.2283" width="34" height="12" rx="6" transform="rotate(-161.304 47.2061 84.2283)" fill="#16181C"/>
<path d="M55.1085 105.334C56.586 108.3 55.3792 111.902 52.4131 113.379L32.7209 123.188C29.7548 124.666 26.1526 123.459 24.6751 120.493V120.493C23.1976 117.527 24.4044 113.925 27.3705 112.447L47.0627 102.638C50.0288 101.161 53.631 102.367 55.1085 105.334V105.334Z" fill="#16181C"/>
<rect x="59.1672" y="21" width="34" height="12" rx="6" transform="rotate(66.8837 59.1672 21)" fill="#16181C"/>
<rect x="73" y="137" width="28" height="9" rx="4.5" fill="#717680"/>
<path d="M113.5 86.5C113.5 100.851 101.644 112.5 87 112.5C72.3556 112.5 60.5 100.851 60.5 86.5C60.5 72.1494 72.3556 60.5 87 60.5C101.644 60.5 113.5 72.1494 113.5 86.5Z" fill="#16181C" stroke="#16181C"/>
<rect x="67" y="120" width="41" height="12" rx="6" fill="#717680"/>
<rect width="34" height="12" rx="6" transform="matrix(0.947233 -0.320546 -0.320546 -0.947233 125.44 84.2654)" fill="#009183"/>
<path d="M117.538 105.371C116.061 108.337 117.267 111.939 120.233 113.416L139.926 123.225C142.892 124.703 146.494 123.496 147.971 120.53V120.53C149.449 117.564 148.242 113.962 145.276 112.484L125.584 102.675C122.618 101.198 119.015 102.405 117.538 105.371V105.371Z" fill="#0086C9"/>
<rect width="34" height="12" rx="6" transform="matrix(-0.392599 0.91971 0.91971 0.392599 113.479 21.0371)" fill="#16181C"/>
<rect width="34" height="12" rx="6" transform="matrix(-0.392599 0.91971 0.91971 0.392599 113.479 21.0371)" fill="#FEC84B"/>
<rect x="47.2061" y="84.2283" width="34" height="12" rx="6" transform="rotate(-161.304 47.2061 84.2283)" fill="#EC4A0A"/>
<path d="M55.1085 105.334C56.586 108.3 55.3792 111.902 52.4131 113.379L32.7209 123.188C29.7548 124.666 26.1526 123.459 24.6751 120.493V120.493C23.1976 117.527 24.4044 113.925 27.3705 112.447L47.0627 102.638C50.0288 101.161 53.631 102.367 55.1085 105.334V105.334Z" fill="#D92D20"/>
<rect x="59.1672" y="21" width="34" height="12" rx="6" transform="rotate(66.8837 59.1672 21)" fill="#7F56D9"/>
<rect x="73" y="137" width="28" height="9" rx="4.5" fill="#717680"/>
</svg>
