<svg width="200" height="200" viewBox="0 0 200 200" fill="none" xmlns="http://www.w3.org/2000/svg">
<rect width="200" height="200" rx="100" fill="white"/>
<path d="M126.5 99.5C126.5 113.851 114.644 125.5 100 125.5C85.3556 125.5 73.5 113.851 73.5 99.5C73.5 85.1494 85.3556 73.5 100 73.5C114.644 73.5 126.5 85.1494 126.5 99.5Z" fill="#16181C" stroke="#16181C"/>
<circle cx="100" cy="100" r="83" stroke="#16181C" stroke-width="8"/>
<rect x="80" y="133" width="41" height="12" rx="6" fill="#717680"/>
<rect width="34" height="12" rx="6" transform="matrix(0.947233 -0.320546 -0.320546 -0.947233 138.441 97.2654)" fill="#16181C"/>
<path d="M130.538 118.371C129.06 121.337 130.267 124.939 133.233 126.416L152.925 136.225C155.892 137.703 159.494 136.496 160.971 133.53V133.53C162.449 130.564 161.242 126.962 158.276 125.484L138.584 115.675C135.618 114.198 132.015 115.405 130.538 118.371V118.371Z" fill="#16181C"/>
<rect width="34" height="12" rx="6" transform="matrix(-0.392599 0.91971 0.91971 0.392599 126.479 34.0371)" fill="#16181C"/>
<rect width="34" height="12" rx="6" transform="matrix(-0.392599 0.91971 0.91971 0.392599 126.479 34.0371)" fill="#16181C"/>
<rect x="60.2059" y="97.2283" width="34" height="12" rx="6" transform="rotate(-161.304 60.2059 97.2283)" fill="#16181C"/>
<path d="M68.1086 118.334C69.5861 121.3 68.3793 124.902 65.4132 126.379L45.721 136.188C42.7549 137.666 39.1527 136.459 37.6752 133.493V133.493C36.1978 130.527 37.4045 126.925 40.3706 125.447L60.0628 115.638C63.0289 114.161 66.6311 115.367 68.1086 118.334V118.334Z" fill="#16181C"/>
<rect x="72.1672" y="34" width="34" height="12" rx="6" transform="rotate(66.8837 72.1672 34)" fill="#16181C"/>
<rect x="86" y="150" width="28" height="9" rx="4.5" fill="#717680"/>
<path d="M126.5 99.5C126.5 113.851 114.644 125.5 100 125.5C85.3556 125.5 73.5 113.851 73.5 99.5C73.5 85.1494 85.3556 73.5 100 73.5C114.644 73.5 126.5 85.1494 126.5 99.5Z" fill="#16181C" stroke="#16181C"/>
<rect x="80" y="133" width="41" height="12" rx="6" fill="#717680"/>
<rect width="34" height="12" rx="6" transform="matrix(0.947233 -0.320546 -0.320546 -0.947233 138.441 97.2654)" fill="#009183"/>
<path d="M130.538 118.371C129.06 121.337 130.267 124.939 133.233 126.416L152.925 136.225C155.892 137.703 159.494 136.496 160.971 133.53V133.53C162.449 130.564 161.242 126.962 158.276 125.484L138.584 115.675C135.618 114.198 132.015 115.405 130.538 118.371V118.371Z" fill="#0086C9"/>
<rect width="34" height="12" rx="6" transform="matrix(-0.392599 0.91971 0.91971 0.392599 126.479 34.0371)" fill="#16181C"/>
<rect width="34" height="12" rx="6" transform="matrix(-0.392599 0.91971 0.91971 0.392599 126.479 34.0371)" fill="#FEC84B"/>
<rect x="60.2059" y="97.2283" width="34" height="12" rx="6" transform="rotate(-161.304 60.2059 97.2283)" fill="#EC4A0A"/>
<path d="M68.1086 118.334C69.5861 121.3 68.3793 124.902 65.4132 126.379L45.721 136.188C42.7549 137.666 39.1527 136.459 37.6752 133.493V133.493C36.1978 130.527 37.4045 126.925 40.3706 125.447L60.0628 115.638C63.0289 114.161 66.6311 115.367 68.1086 118.334V118.334Z" fill="#D92D20"/>
<rect x="72.1672" y="34" width="34" height="12" rx="6" transform="rotate(66.8837 72.1672 34)" fill="#7F56D9"/>
<rect x="86" y="150" width="28" height="9" rx="4.5" fill="#717680"/>
</svg>
