<svg width="800" height="400" viewBox="0 0 800 400" fill="none" xmlns="http://www.w3.org/2000/svg">
<rect width="800" height="400" fill="white"/>
<path d="M157.584 199.4H199.312V289H157.584V199.4ZM206.584 199.4H244.216L281.592 244.2V199.4H289.272V289H259.192L214.392 229.352V289H206.584V199.4ZM296.459 199.4H389.387V206.952H341.387V240.104H364.939V247.784H341.387V289H296.459V199.4ZM439.717 289.64C424.272 289.64 413.221 287.379 406.565 282.856C399.994 278.333 396.709 271.421 396.709 262.12V199.4H445.605V262.12C445.605 268.179 446.928 272.616 449.573 275.432C452.304 278.163 455.888 279.528 460.325 279.528C470.224 279.528 475.173 273.725 475.173 262.12V199.4H482.725V262.12C482.725 269.373 481.189 275.005 478.117 279.016C475.045 282.941 470.437 285.715 464.293 287.336C458.149 288.872 449.957 289.64 439.717 289.64ZM557.418 231.528C567.573 234.259 575.167 237.885 580.202 242.408C585.237 246.845 587.754 252.648 587.754 259.816C587.754 265.533 585.962 270.653 582.378 275.176C578.794 279.699 573.503 283.24 566.506 285.8C559.594 288.36 551.189 289.64 541.29 289.64C529.599 289.64 519.274 288.147 510.314 285.16C501.439 282.088 494.485 278.376 489.45 274.024L493.674 268.264C498.111 271.763 503.701 274.749 510.442 277.224C517.183 279.699 524.437 280.936 532.202 280.936C537.237 280.936 541.034 280.211 543.594 278.76C546.239 277.309 547.562 275.261 547.562 272.616C547.562 268.008 542.997 264.424 533.866 261.864L517.226 257C508.181 254.269 501.183 250.472 496.234 245.608C491.37 240.744 488.938 234.984 488.938 228.328C488.938 222.781 490.687 217.747 494.186 213.224C497.685 208.701 502.762 205.16 509.418 202.6C516.159 199.955 524.223 198.632 533.61 198.632C542.57 198.632 550.805 199.656 558.314 201.704C565.909 203.752 572.095 206.227 576.874 209.128L572.65 215.016C568.639 212.712 563.818 210.749 558.186 209.128C552.639 207.507 546.794 206.696 540.65 206.696C535.274 206.696 531.135 207.549 528.234 209.256C525.418 210.877 524.01 213.139 524.01 216.04C524.01 218.259 525.077 220.221 527.21 221.928C529.343 223.549 533.397 225.171 539.37 226.792L557.418 231.528ZM594.209 199.4H687.265V206.952H639.265V240.104H662.817V247.784H639.265V281.32H687.265V289H594.209V199.4Z" fill="black"/>
<path d="M286.4 153.392H325.616V156.656H286.4V153.392ZM304.016 147.008H308V155.072H304.016V147.008ZM291.44 169.52H321.248V172.784H291.44V169.52ZM291.44 160.208H295.424V170.528H291.44V160.208ZM305.984 131.6C309.088 131.6 311.776 131.952 314.048 132.656C316.352 133.328 318.128 134.32 319.376 135.632C320.624 136.912 321.248 138.448 321.248 140.24C321.248 142.064 320.624 143.632 319.376 144.944C318.128 146.224 316.352 147.216 314.048 147.92C311.776 148.592 309.088 148.928 305.984 148.928C302.88 148.928 300.176 148.592 297.872 147.92C295.6 147.216 293.84 146.224 292.592 144.944C291.344 143.632 290.72 142.064 290.72 140.24C290.72 138.448 291.344 136.912 292.592 135.632C293.84 134.32 295.6 133.328 297.872 132.656C300.176 131.952 302.88 131.6 305.984 131.6ZM305.984 134.816C303.744 134.816 301.776 135.04 300.08 135.488C298.416 135.904 297.12 136.528 296.192 137.36C295.264 138.16 294.8 139.12 294.8 140.24C294.8 141.392 295.264 142.368 296.192 143.168C297.12 143.968 298.416 144.592 300.08 145.04C301.776 145.456 303.744 145.664 305.984 145.664C308.288 145.664 310.272 145.456 311.936 145.04C313.6 144.592 314.88 143.968 315.776 143.168C316.704 142.368 317.168 141.392 317.168 140.24C317.168 139.12 316.704 138.16 315.776 137.36C314.88 136.528 313.6 135.904 311.936 135.488C310.272 135.04 308.288 134.816 305.984 134.816ZM340.828 133.712C342.748 133.712 344.444 134.16 345.916 135.056C347.388 135.952 348.556 137.2 349.42 138.8C350.284 140.368 350.716 142.192 350.716 144.272C350.716 146.32 350.284 148.144 349.42 149.744C348.556 151.344 347.388 152.592 345.916 153.488C344.444 154.352 342.748 154.784 340.828 154.784C338.908 154.784 337.212 154.352 335.74 153.488C334.268 152.592 333.1 151.344 332.236 149.744C331.404 148.144 330.988 146.32 330.988 144.272C330.988 142.192 331.404 140.368 332.236 138.8C333.1 137.2 334.268 135.952 335.74 135.056C337.212 134.16 338.908 133.712 340.828 133.712ZM340.828 137.12C339.644 137.12 338.572 137.44 337.612 138.08C336.684 138.688 335.948 139.52 335.404 140.576C334.86 141.632 334.588 142.864 334.588 144.272C334.588 145.68 334.86 146.912 335.404 147.968C335.948 149.024 336.684 149.872 337.612 150.512C338.572 151.12 339.644 151.424 340.828 151.424C342.012 151.424 343.068 151.12 343.996 150.512C344.956 149.872 345.708 149.024 346.252 147.968C346.796 146.912 347.068 145.68 347.068 144.272C347.068 142.864 346.796 141.632 346.252 140.576C345.708 139.52 344.956 138.688 343.996 138.08C343.068 137.44 342.012 137.12 340.828 137.12ZM363.34 130.352H367.132V162.944H363.34V130.352ZM356.332 142.976H364.54V146.288H356.332V142.976ZM354.076 131.168H357.82V161.408H354.076V131.168ZM338.812 169.52H368.428V172.784H338.812V169.52ZM338.812 158.672H342.796V171.056H338.812V158.672ZM392.329 154.832H396.265V165.632H392.329V154.832ZM394.297 133.136C397.369 133.136 400.089 133.616 402.457 134.576C404.825 135.504 406.681 136.816 408.025 138.512C409.401 140.208 410.089 142.208 410.089 144.512C410.089 146.816 409.401 148.832 408.025 150.56C406.681 152.256 404.825 153.568 402.457 154.496C400.089 155.424 397.369 155.888 394.297 155.888C391.257 155.888 388.537 155.424 386.137 154.496C383.769 153.568 381.913 152.256 380.569 150.56C379.225 148.832 378.553 146.816 378.553 144.512C378.553 142.208 379.225 140.208 380.569 138.512C381.913 136.816 383.769 135.504 386.137 134.576C388.537 133.616 391.257 133.136 394.297 133.136ZM394.297 136.352C391.993 136.352 389.945 136.688 388.153 137.36C386.361 138.032 384.953 138.992 383.929 140.24C382.905 141.456 382.393 142.88 382.393 144.512C382.393 146.144 382.905 147.584 383.929 148.832C384.953 150.08 386.361 151.04 388.153 151.712C389.945 152.384 391.993 152.72 394.297 152.72C396.601 152.72 398.649 152.384 400.441 151.712C402.233 151.04 403.641 150.08 404.665 148.832C405.721 147.584 406.249 146.144 406.249 144.512C406.249 142.88 405.721 141.456 404.665 140.24C403.641 138.992 402.233 138.032 400.441 137.36C398.649 136.688 396.601 136.352 394.297 136.352ZM374.713 164.864H414.073V168.176H374.713V164.864ZM418.869 164.816H458.229V168.176H418.869V164.816ZM422.325 134.672H454.533V137.936H422.325V134.672ZM422.421 152.96H454.437V156.224H422.421V152.96ZM429.045 137.648H433.029V153.344H429.045V137.648ZM443.829 137.648H447.765V153.344H443.829V137.648ZM475.507 134.624H495.715V137.888H475.507V134.624ZM475.171 155.648L474.739 152.288C476.179 152.288 477.795 152.288 479.587 152.288C481.411 152.256 483.315 152.208 485.299 152.144C487.283 152.08 489.235 151.984 491.155 151.856C493.075 151.696 494.883 151.504 496.579 151.28L496.771 154.304C494.499 154.688 492.051 154.976 489.427 155.168C486.803 155.36 484.243 155.488 481.747 155.552C479.283 155.616 477.091 155.648 475.171 155.648ZM479.155 137.216H482.851V153.296H479.155V137.216ZM488.371 137.216H492.019V153.296H488.371V137.216ZM483.091 169.52H512.803V172.784H483.091V169.52ZM483.091 159.152H487.075V171.584H483.091V159.152ZM507.715 130.352H511.507V163.232H507.715V130.352ZM500.707 143.504H508.915V146.816H500.707V143.504ZM498.595 131.168H502.387V161.696H498.595V131.168ZM552.304 130.304H556.144V173.744H552.304V130.304ZM538.048 146.816H545.2V150.368H538.048V146.816ZM543.904 131.36H547.696V171.44H543.904V131.36ZM519.52 135.824H539.296V139.088H519.52V135.824ZM519.088 163.04L518.608 159.68C520.048 159.68 521.664 159.68 523.456 159.68C525.248 159.648 527.12 159.6 529.072 159.536C531.024 159.44 532.96 159.328 534.88 159.2C536.8 159.04 538.592 158.848 540.256 158.624L540.544 161.6C538.272 162.016 535.824 162.336 533.2 162.56C530.608 162.752 528.08 162.88 525.616 162.944C523.152 163.008 520.976 163.04 519.088 163.04ZM523.072 137.936H526.72V160.64H523.072V137.936ZM532.048 137.936H535.744V160.64H532.048V137.936ZM594.78 130.304H598.764V173.792H594.78V130.304ZM575.868 133.664C578.012 133.664 579.9 134.288 581.532 135.536C583.196 136.752 584.492 138.496 585.42 140.768C586.38 143.04 586.86 145.712 586.86 148.784C586.86 151.856 586.38 154.528 585.42 156.8C584.492 159.072 583.196 160.832 581.532 162.08C579.9 163.328 578.012 163.952 575.868 163.952C573.724 163.952 571.82 163.328 570.156 162.08C568.492 160.832 567.18 159.072 566.22 156.8C565.292 154.528 564.828 151.856 564.828 148.784C564.828 145.712 565.292 143.04 566.22 140.768C567.18 138.496 568.492 136.752 570.156 135.536C571.82 134.288 573.724 133.664 575.868 133.664ZM575.868 137.216C574.428 137.216 573.164 137.696 572.076 138.656C571.02 139.584 570.188 140.928 569.58 142.688C568.972 144.416 568.668 146.448 568.668 148.784C568.668 151.12 568.972 153.168 569.58 154.928C570.188 156.656 571.02 158 572.076 158.96C573.164 159.92 574.428 160.4 575.868 160.4C577.276 160.4 578.508 159.92 579.564 158.96C580.652 158 581.5 156.656 582.108 154.928C582.716 153.168 583.02 151.12 583.02 148.784C583.02 146.448 582.716 144.416 582.108 142.688C581.5 140.928 580.652 139.584 579.564 138.656C578.508 137.696 577.276 137.216 575.868 137.216ZM618.872 136.544H622.136V143.552C622.136 145.856 621.816 148.128 621.176 150.368C620.536 152.576 619.64 154.672 618.488 156.656C617.368 158.608 616.056 160.336 614.552 161.84C613.048 163.344 611.432 164.528 609.704 165.392L607.4 162.224C608.968 161.456 610.44 160.416 611.816 159.104C613.224 157.792 614.456 156.288 615.512 154.592C616.568 152.896 617.384 151.104 617.96 149.216C618.568 147.328 618.872 145.44 618.872 143.552V136.544ZM619.688 136.544H622.904V143.552C622.904 145.376 623.192 147.2 623.768 149.024C624.376 150.816 625.208 152.512 626.264 154.112C627.352 155.68 628.584 157.072 629.96 158.288C631.368 159.504 632.872 160.464 634.472 161.168L632.264 164.336C630.504 163.504 628.856 162.384 627.32 160.976C625.784 159.568 624.44 157.952 623.288 156.128C622.168 154.272 621.288 152.288 620.648 150.176C620.008 148.032 619.688 145.824 619.688 143.552V136.544ZM608.792 134.768H633.032V138.08H608.792V134.768ZM638.936 130.304H642.92V173.744H638.936V130.304Z" fill="black"/>
<path d="M204.5 155C204.5 169.074 192.868 180.5 178.5 180.5C164.132 180.5 152.5 169.074 152.5 155C152.5 140.926 164.132 129.5 178.5 129.5C192.868 129.5 204.5 140.926 204.5 155Z" fill="#16181C" stroke="#16181C"/>
<rect width="33.3707" height="11.782" rx="5.89102" transform="matrix(0.94719 -0.320673 -0.320419 -0.947276 216.392 153.119)" fill="#16181C"/>
<path d="M208.636 173.842C207.186 176.754 208.371 180.292 211.282 181.743L230.606 191.373C233.518 192.824 237.054 191.639 238.504 188.727V188.727C239.954 185.814 238.769 182.277 235.858 180.826L216.534 171.196C213.622 169.745 210.086 170.93 208.636 173.842V173.842Z" fill="#16181C"/>
<rect width="33.3817" height="11.7782" rx="5.88909" transform="matrix(-0.392452 0.919772 0.919647 0.392746 204.652 91.0364)" fill="#16181C"/>
<rect width="33.3817" height="11.7782" rx="5.88909" transform="matrix(-0.392452 0.919772 0.919647 0.392746 204.652 91.0364)" fill="#16181C"/>
<rect width="33.3707" height="11.782" rx="5.89102" transform="matrix(-0.94719 -0.320673 0.320419 -0.947276 139.608 153.083)" fill="#16181C"/>
<path d="M147.364 173.806C148.814 176.718 147.629 180.255 144.718 181.706L125.394 191.336C122.482 192.787 118.946 191.603 117.496 188.69V188.69C116.046 185.778 117.231 182.241 120.142 180.79L139.466 171.16C142.378 169.709 145.914 170.893 147.364 173.806V173.806Z" fill="#16181C"/>
<rect width="33.3817" height="11.7782" rx="5.88909" transform="matrix(0.392452 0.919772 -0.919647 0.392746 151.348 91)" fill="#16181C"/>
<path d="M204.5 155C204.5 169.074 192.868 180.5 178.5 180.5C164.132 180.5 152.5 169.074 152.5 155C152.5 140.926 164.132 129.5 178.5 129.5C192.868 129.5 204.5 140.926 204.5 155Z" fill="#16181C" stroke="#16181C"/>
<rect width="33.3707" height="11.782" rx="5.89102" transform="matrix(0.94719 -0.320673 -0.320419 -0.947276 216.392 153.119)" fill="#009183"/>
<path d="M208.636 173.842C207.186 176.754 208.371 180.292 211.282 181.743L230.606 191.373C233.518 192.824 237.054 191.639 238.504 188.727V188.727C239.954 185.814 238.769 182.277 235.858 180.826L216.534 171.196C213.622 169.745 210.086 170.93 208.636 173.842V173.842Z" fill="#0086C9"/>
<rect width="33.3817" height="11.7782" rx="5.88909" transform="matrix(-0.392452 0.919772 0.919647 0.392746 204.652 91.0364)" fill="#16181C"/>
<rect width="33.3817" height="11.7782" rx="5.88909" transform="matrix(-0.392452 0.919772 0.919647 0.392746 204.652 91.0364)" fill="#FEC84B"/>
<rect width="33.3707" height="11.782" rx="5.89102" transform="matrix(-0.94719 -0.320673 0.320419 -0.947276 139.608 153.083)" fill="#EC4A0A"/>
<path d="M147.364 173.806C148.814 176.718 147.629 180.255 144.718 181.706L125.394 191.336C122.482 192.787 118.946 191.603 117.496 188.69V188.69C116.046 185.778 117.231 182.241 120.142 180.79L139.466 171.16C142.378 169.709 145.914 170.893 147.364 173.806V173.806Z" fill="#D92D20"/>
<rect width="33.3817" height="11.7782" rx="5.88909" transform="matrix(0.392452 0.919772 -0.919647 0.392746 151.348 91)" fill="#7F56D9"/>
</svg>
